<svg width="595" height="679" viewBox="0 0 595 679" fill="none" xmlns="http://www.w3.org/2000/svg">
<line x1="1" y1="-1" x2="350.039" y2="-1" transform="matrix(0.977074 0.212901 -0.196628 0.980478 156.024 6.04956)" stroke="#F95530" stroke-width="2" stroke-miterlimit="4.62023" stroke-linecap="round"/>
<line x1="1" y1="-1" x2="345.407" y2="-1" transform="matrix(0.978953 0.204085 -0.188434 0.982086 167.651 2.01001)" stroke="#F95530" stroke-width="2" stroke-miterlimit="4.62023" stroke-linecap="round"/>
<line x1="1" y1="-1" x2="11.3087" y2="-1" transform="matrix(-0.944605 0.328208 -0.30459 -0.952484 168.627 0)" stroke="#F95530" stroke-width="2" stroke-miterlimit="4.62023" stroke-linecap="round"/>
<line x1="1" y1="-1" x2="10.1965" y2="-1" transform="matrix(0.69229 -0.721619 0.69229 0.721619 499.016 80.7861)" stroke="#F95530" stroke-width="2" stroke-miterlimit="4.62023" stroke-linecap="round"/>
<path d="M163 80.5L157.083 6.07651" stroke="#F95530" stroke-width="2" stroke-miterlimit="4.62023" stroke-linecap="round"/>
<line x1="1" y1="-1" x2="6.07925" y2="-1" transform="matrix(-0.821191 0.570654 -0.538797 -0.842436 167.651 76.7461)" stroke="#F95530" stroke-width="2" stroke-miterlimit="4.62023" stroke-linecap="round"/>
<line x1="1" y1="-1" x2="203.458" y2="-1" transform="matrix(-0.417022 -0.908896 0.894955 -0.446156 252.915 262.577)" stroke="#F95530" stroke-width="2" stroke-miterlimit="4.62023" stroke-linecap="round"/>
<line x1="242.677" y1="276.763" x2="251.623" y2="262.323" stroke="#F95530" stroke-width="2" stroke-miterlimit="4.62023" stroke-linecap="round"/>
<line x1="1" y1="-1" x2="20.5792" y2="-1" transform="matrix(0.538797 0.842436 -0.821191 0.570654 241.288 276.717)" stroke="#F95530" stroke-width="2" stroke-miterlimit="4.62023" stroke-linecap="round"/>
<line x1="499.016" y1="79.9841" x2="500" y2="142.387" stroke="#F95530" stroke-width="2" stroke-miterlimit="4.62023" stroke-linecap="round"/>
<line x1="506.255" y1="72.6522" x2="593.652" y2="349.188" stroke="#F95530" stroke-width="2" stroke-miterlimit="4.62023" stroke-linecap="round"/>
<line x1="1" y1="-1" x2="236.911" y2="-1" transform="matrix(0.309512 0.950895 -0.942778 0.333422 499.016 143.403)" stroke="#F95530" stroke-width="2" stroke-miterlimit="4.62023" stroke-linecap="round"/>
<line x1="1" y1="-1" x2="27.6705" y2="-1" transform="matrix(-0.709682 0.704522 -0.674523 -0.738254 593 349.433)" stroke="#F95530" stroke-width="2" stroke-miterlimit="4.62023" stroke-linecap="round"/>
<path d="M478.5 372C478.5 328.772 389.091 292.876 278.591 292.876C168.091 292.876 78.5127 327.919 78.5127 371.147C78.5127 382.084 84.2465 392.497 94.6024 401.951L249.524 448.598C259.013 449.139 268.719 449.418 278.591 449.418C377.455 449.418 459.571 421.367 475.769 384.5" stroke="#F95530" stroke-width="2" stroke-miterlimit="4.62023" stroke-linecap="round"/>
<line x1="572.37" y1="382.386" x2="593.614" y2="350.282" stroke="#F95530" stroke-width="2" stroke-miterlimit="4.62023" stroke-linecap="round"/>
<path d="M571.652 515.075L572 383.5" stroke="#F95530" stroke-width="2" stroke-miterlimit="4.62023" stroke-linecap="round"/>
<line x1="1" y1="-1" x2="279.58" y2="-1" transform="matrix(0.814958 -0.579521 0.547619 0.836728 343.991 678.677)" stroke="#F95530" stroke-width="2" stroke-miterlimit="4.62023" stroke-linecap="round"/>
<line x1="1" y1="-1" x2="357.64" y2="-1" transform="matrix(0.940157 0.340743 -0.316429 0.948616 6.81348 556.473)" stroke="#F95530" stroke-width="2" stroke-miterlimit="4.62023" stroke-linecap="round"/>
<line x1="344" y1="506" x2="344" y2="676.702" stroke="#F95530" stroke-width="2" stroke-miterlimit="4.62023" stroke-linecap="round"/>
<path d="M1.5 397.5L7.77643 555.434" stroke="#F95530" stroke-width="2" stroke-miterlimit="4.62023" stroke-linecap="round"/>
<line x1="1" y1="-1" x2="358.612" y2="-1" transform="matrix(0.953781 0.300503 -0.278502 0.960436 1 397.911)" stroke="#F95530" stroke-width="2" stroke-miterlimit="4.62023" stroke-linecap="round"/>
<path d="M24 380L365.585 482.505" stroke="#F95530" stroke-width="2" stroke-miterlimit="4.62023" stroke-linecap="round"/>
<path d="M1.24197 396.49L23.5 380" stroke="#F95530" stroke-width="2" stroke-miterlimit="4.62023" stroke-linecap="round"/>
<line x1="1" y1="-1" x2="30.4689" y2="-1" transform="matrix(0.708152 -0.70606 0.676116 0.736795 343.991 505.975)" stroke="#F95530" stroke-width="2" stroke-miterlimit="4.62023" stroke-linecap="round"/>
<line x1="1" y1="-1" x2="198.254" y2="-1" transform="matrix(0.982257 -0.187541 0.173072 0.984909 293.608 409.02)" stroke="#F95530" stroke-width="2" stroke-miterlimit="4.62023" stroke-linecap="round"/>
<line x1="1" y1="-1" x2="205.181" y2="-1" transform="matrix(-0.986849 0.161646 -0.149071 -0.988826 497.078 379.731)" stroke="#F95530" stroke-width="2" stroke-miterlimit="4.62023" stroke-linecap="round"/>
<line x1="487.337" y1="367.295" x2="517.245" y2="353.501" stroke="#F95530" stroke-width="2" stroke-miterlimit="4.62023" stroke-linecap="round"/>
<line x1="518.378" y1="353.684" x2="528.736" y2="360.174" stroke="#F95530" stroke-width="2" stroke-miterlimit="4.62023" stroke-linecap="round"/>
<line x1="529" y1="383.239" x2="529" y2="361" stroke="#F95530" stroke-width="2" stroke-miterlimit="4.62023" stroke-linecap="round"/>
<line x1="1" y1="-1" x2="26.5952" y2="-1" transform="matrix(0.983114 -0.182994 0.168854 0.985641 502.892 389.831)" stroke="#F95530" stroke-width="2" stroke-miterlimit="4.62023" stroke-linecap="round"/>
<line x1="1" y1="-1" x2="15.1874" y2="-1" transform="matrix(-0.0598523 0.998207 -0.997885 -0.06501 503.86 372.662)" stroke="#F95530" stroke-width="2" stroke-miterlimit="4.62023" stroke-linecap="round"/>
<line x1="1" y1="-1" x2="18.3808" y2="-1" transform="matrix(-0.949864 -0.312665 0.289941 -0.957044 505.408 372.06)" stroke="#F95530" stroke-width="2" stroke-miterlimit="4.62023" stroke-linecap="round"/>
<line x1="1" y1="-1" x2="181.141" y2="-1" transform="matrix(0.946874 0.321603 -0.298361 0.954453 78.5127 449.418)" stroke="#F95530" stroke-width="2" stroke-miterlimit="4.62023" stroke-linecap="round"/>
<path d="M78.4463 459.517C109.017 557.888 211.885 586.116 248.516 513.716" stroke="#F95530" stroke-width="2" stroke-miterlimit="4.62023" stroke-linecap="round"/>
<line x1="1" y1="-1" x2="25.4554" y2="-1" transform="matrix(0.952223 0.305404 -0.28311 0.959088 97.8906 556.473)" stroke="#F95530" stroke-width="2" stroke-miterlimit="4.62023" stroke-linecap="round"/>
<path d="M342.992 371.652C342.992 374.293 341.43 376.959 338.262 379.523C335.102 382.08 330.469 384.427 324.655 386.417C313.037 390.394 296.922 392.871 279.076 392.871C261.229 392.871 245.115 390.394 233.497 386.417C227.683 384.427 223.049 382.08 219.89 379.523C216.721 376.959 215.159 374.293 215.159 371.652C215.159 369.011 216.721 366.345 219.89 363.781C223.049 361.224 227.683 358.877 233.497 356.887C245.115 352.91 261.229 350.433 279.076 350.433C296.922 350.433 313.037 352.91 324.655 356.887C330.469 358.877 335.102 361.224 338.262 363.781C341.43 366.345 342.992 369.011 342.992 371.652Z" stroke="#F95530" stroke-width="2" stroke-miterlimit="4.62023" stroke-linecap="round"/>
<line x1="1" y1="-1" x2="247.466" y2="-1" transform="matrix(-0.8306 0.556869 -0.525125 -0.851025 572.652 380.741)" stroke="#F95530" stroke-width="2" stroke-miterlimit="4.62023" stroke-linecap="round"/>
<path d="M367.276 483.746V660" stroke="#F95530" stroke-width="2" stroke-miterlimit="4.62023" stroke-linecap="round"/>
<line x1="1" y1="-1" x2="100.576" y2="-1" transform="matrix(-0.763097 0.646284 -0.614775 -0.788702 535.834 384.781)" stroke="#F95530" stroke-width="2" stroke-miterlimit="4.62023" stroke-linecap="round"/>
<line x1="449.413" y1="441.933" x2="458.933" y2="450.587" stroke="#F95530" stroke-width="2" stroke-miterlimit="4.62023" stroke-linecap="round"/>
<line x1="1" y1="-1" x2="54.5682" y2="-1" transform="matrix(-0.575397 0.817874 -0.794475 -0.607298 478.975 396)" stroke="#F95530" stroke-width="2" stroke-miterlimit="4.62023" stroke-linecap="round"/>
<line x1="280.076" y1="361.542" x2="280.076" y2="368.632" stroke="#F95530" stroke-width="2" stroke-miterlimit="4.62023" stroke-linecap="round"/>
<path d="M62.1724 560.304C60.6602 563.684 55.9495 565.083 51.4231 562.883C46.8968 560.683 44.8965 556.022 46.4087 552.642C47.921 549.261 52.6317 547.863 57.158 550.063C61.6844 552.263 63.6847 556.924 62.1724 560.304Z" stroke="#F95530" stroke-width="2" stroke-miterlimit="4.62023" stroke-linecap="round"/>
<path d="M286.639 630.979C284.571 635.602 278.042 637.39 271.793 634.352C265.543 631.315 262.661 624.952 264.729 620.329C266.797 615.706 273.326 613.919 279.575 616.956C285.825 619.994 288.708 626.356 286.639 630.979Z" stroke="#F95530" stroke-width="2" stroke-miterlimit="4.62023" stroke-linecap="round"/>
<path d="M168.162 78.214L499 143.5" stroke="#F95530" stroke-width="2" stroke-miterlimit="4.62023" stroke-linecap="round"/>
<line x1="1" y1="-1" x2="119.41" y2="-1" transform="matrix(-0.965604 -0.260016 0.240556 -0.970635 572.652 366.602)" stroke="#F95530" stroke-width="2" stroke-miterlimit="4.62023" stroke-linecap="round"/>
<line x1="1" y1="-1" x2="27.8313" y2="-1" transform="matrix(0.907362 -0.420349 0.392222 0.919871 503.861 373.671)" stroke="#F95530" stroke-width="2" stroke-miterlimit="4.62023" stroke-linecap="round"/>
<line x1="487.42" y1="368.612" x2="487.42" y2="370.652" stroke="#F95530" stroke-width="2" stroke-miterlimit="4.62023" stroke-linecap="round"/>
<path d="M503.5 388.5L488.734 385.225" stroke="#F95530" stroke-width="2" stroke-miterlimit="4.62023" stroke-linecap="round"/>
<line x1="488.39" y1="382.751" x2="488.39" y2="384.791" stroke="#F95530" stroke-width="2" stroke-miterlimit="4.62023" stroke-linecap="round"/>
<line x1="1" y1="-1" x2="318.405" y2="-1" transform="matrix(0.97374 0.227662 -0.210367 0.977622 250.977 262.577)" stroke="#F95530" stroke-width="2" stroke-miterlimit="4.62023" stroke-linecap="round"/>
<path d="M32.5 382L80.8806 360.454M247 285L223.089 295.861" stroke="#F95530" stroke-width="2" stroke-miterlimit="4.62023" stroke-linecap="round"/>
<line x1="1" y1="-1" x2="57.2347" y2="-1" transform="matrix(0.981635 -0.19077 0.176069 0.984378 478.669 397.911)" stroke="#F95530" stroke-width="2" stroke-miterlimit="4.62023" stroke-linecap="round"/>
<line x1="488.407" y1="371.141" x2="496.141" y2="380.593" stroke="#F95530" stroke-width="2" stroke-miterlimit="4.62023" stroke-linecap="round"/>
<line x1="1" y1="-1" x2="41.7595" y2="-1" transform="matrix(0.951693 0.307051 -0.284659 0.958629 195.75 592.831)" stroke="#F95530" stroke-width="2" stroke-miterlimit="4.62023" stroke-linecap="round"/>
<path d="M294.5 408L294.608 420.139" stroke="#F95530" stroke-width="2" stroke-miterlimit="4.62023" stroke-linecap="round"/>
</svg>
