<svg width="206" height="56" viewBox="0 0 206 56" fill="none" xmlns="http://www.w3.org/2000/svg">
<path d="M124.972 38.0938C124.907 39.3145 124.337 40.291 123.263 41.0234C122.286 41.6745 121.155 42 119.869 42H110.47C109.184 42 108.207 41.6582 107.54 40.9746C107.101 40.5352 106.547 39.5749 105.88 38.0938L101.07 27.4492C101.673 27.3353 103.064 26.8714 105.245 26.0576C107.361 25.2764 108.688 24.7393 109.225 24.4463C112.464 22.7699 114.083 20.6702 114.083 18.1475C114.083 15.2503 112.032 13.8018 107.931 13.8018H83.0283L86.8369 7.64941H111.422C120.26 7.64941 124.679 10.4652 124.679 16.0967C124.679 20.8656 120.081 25.0322 110.885 28.5967L115.279 38.0938H124.972ZM104.537 16.9512L95.626 42H86.8369L95.6748 16.9512H104.537ZM155.685 38.0938C155.343 39.347 154.562 40.3317 153.341 41.0479C152.25 41.6826 151.005 42 149.605 42H136.007C128.097 42 124.142 39.6156 124.142 34.8467C124.142 31.7868 125.493 29.3861 128.194 27.6445C130.522 26.1471 133.289 25.3984 136.495 25.3984H140.035C142.102 25.3984 143.917 25.7158 145.479 26.3506C147.563 27.1969 148.653 28.4827 148.751 30.208C148.832 31.9495 147.994 33.3981 146.236 34.5537H138.155L140.792 29.3047H135.641L133.639 35.1885C133.525 35.5303 133.468 35.8395 133.468 36.1162C133.468 37.4346 134.526 38.0938 136.642 38.0938H155.685ZM186.104 38.0938C185.746 39.3633 184.998 40.348 183.858 41.0479C182.817 41.6826 181.604 42 180.221 42H165.523C162.724 42 160.372 41.528 158.468 40.584C156.059 39.3958 154.854 37.6055 154.854 35.2129C154.854 34.9525 154.871 34.6839 154.903 34.4072C155.229 31.4938 156.743 29.2152 159.444 27.5713C161.821 26.1227 164.628 25.3984 167.867 25.3984H174.02C175.403 25.3984 176.583 25.8379 177.56 26.7168C178.536 27.5957 179.024 28.6699 179.024 29.9395C179.024 31.2253 178.528 32.3158 177.535 33.2109C176.559 34.1061 175.387 34.5537 174.02 34.5537C172.636 34.5537 171.456 34.1061 170.479 33.2109C169.519 32.2995 169.047 31.1927 169.063 29.8906C169.063 29.8906 169.063 29.6953 169.063 29.3047H166.109L164.205 34.7002C164.042 35.1559 163.961 35.571 163.961 35.9453C163.961 37.3776 165.092 38.0938 167.354 38.0938H186.104ZM200.045 38.8506C200.045 39.9248 199.63 40.8444 198.8 41.6094C197.97 42.3743 196.969 42.7568 195.797 42.7568C194.609 42.7568 193.6 42.3743 192.77 41.6094C191.956 40.8444 191.549 39.9248 191.549 38.8506C191.549 37.7764 191.956 36.8568 192.77 36.0918C193.6 35.3268 194.609 34.9443 195.797 34.9443C196.969 34.9443 197.97 35.3268 198.8 36.0918C199.63 36.8568 200.045 37.7764 200.045 38.8506Z" fill="black"/>
<path fill-rule="evenodd" clip-rule="evenodd" d="M28 56C43.464 56 56 43.464 56 28C56 12.536 43.464 0 28 0C12.536 0 0 12.536 0 28C0 43.464 12.536 56 28 56ZM28 33C30.7614 33 33 30.7614 33 28C33 25.2386 30.7614 23 28 23C25.2386 23 23 25.2386 23 28C23 30.7614 25.2386 33 28 33Z" fill="black"/>
<path fill-rule="evenodd" clip-rule="evenodd" d="M28 37C32.9706 37 37 32.9706 37 28C37 23.0294 32.9706 19 28 19C23.0294 19 19 23.0294 19 28C19 32.9706 23.0294 37 28 37ZM28.0014 30.4545C29.357 30.4545 30.456 29.3556 30.456 28C30.456 26.6444 29.357 25.5455 28.0014 25.5455C26.6458 25.5455 25.5469 26.6444 25.5469 28C25.5469 29.3556 26.6458 30.4545 28.0014 30.4545Z" fill="#FEB0BE"/>
</svg>
